<svg width="37" height="34" viewBox="0 0 37 34" fill="none" xmlns="http://www.w3.org/2000/svg">
<path d="M31.6667 0H15C13.6739 0 12.4021 0.526784 11.4645 1.46447C10.5268 2.40215 10 3.67392 10 5V8.33333H5C3.67392 8.33333 2.40215 8.86012 1.46447 9.7978C0.526785 10.7355 6.87455e-07 12.0073 6.87455e-07 13.3333V23.3333C-0.0005416 24.3678 0.31976 25.3769 0.916761 26.2216C1.51376 27.0664 2.35807 27.7052 3.33333 28.05V31.6667C3.33384 31.962 3.41282 32.2519 3.56217 32.5067C3.71152 32.7614 3.92589 32.972 4.18333 33.1167C4.43243 33.2578 4.71369 33.3325 5 33.3333C5.29914 33.3332 5.59274 33.2527 5.85 33.1L13.8 28.3333H21.6667C22.9927 28.3333 24.2645 27.8066 25.2022 26.8689C26.1399 25.9312 26.6667 24.6594 26.6667 23.3333V22.2833L30.8167 24.7667C31.0739 24.9193 31.3675 24.9999 31.6667 25C31.953 24.9991 32.2342 24.9245 32.4833 24.7833C32.7408 24.6386 32.9551 24.4281 33.1045 24.1733C33.2538 23.9185 33.3328 23.6287 33.3333 23.3333V19.7167C34.3086 19.3719 35.1529 18.7331 35.7499 17.8883C36.3469 17.0435 36.6672 16.0344 36.6667 15V5C36.6667 3.67392 36.1399 2.40215 35.2022 1.46447C34.2645 0.526784 32.9927 0 31.6667 0ZM23.3333 23.3333C23.3333 23.7754 23.1577 24.1993 22.8452 24.5118C22.5326 24.8244 22.1087 25 21.6667 25H13.3333C13.0342 25.0001 12.7406 25.0807 12.4833 25.2333L6.66667 28.7167V26.6667C6.66667 26.2246 6.49107 25.8007 6.17851 25.4882C5.86595 25.1756 5.44203 25 5 25C4.55797 25 4.13405 24.8244 3.82149 24.5118C3.50893 24.1993 3.33333 23.7754 3.33333 23.3333V13.3333C3.33333 12.8913 3.50893 12.4674 3.82149 12.1548C4.13405 11.8423 4.55797 11.6667 5 11.6667H10V15C10 16.3261 10.5268 17.5979 11.4645 18.5355C12.4021 19.4732 13.6739 20 15 20H22.8667L23.3333 20.2833V23.3333ZM33.3333 15C33.3333 15.442 33.1577 15.866 32.8452 16.1785C32.5326 16.4911 32.1087 16.6667 31.6667 16.6667C31.2246 16.6667 30.8007 16.8423 30.4882 17.1548C30.1756 17.4674 30 17.8913 30 18.3333V20.3833L24.1833 16.9C23.9261 16.7474 23.6325 16.6668 23.3333 16.6667H15C14.558 16.6667 14.134 16.4911 13.8215 16.1785C13.5089 15.866 13.3333 15.442 13.3333 15V5C13.3333 4.55797 13.5089 4.13405 13.8215 3.82149C14.134 3.50893 14.558 3.33333 15 3.33333H31.6667C32.1087 3.33333 32.5326 3.50893 32.8452 3.82149C33.1577 4.13405 33.3333 4.55797 33.3333 5V15Z" fill="#C1BBEB"/>
</svg>
