<svg width="39" height="39" viewBox="0 0 39 39" fill="none" xmlns="http://www.w3.org/2000/svg">
<path d="M33.25 3.5H29.75V1.75C29.75 1.28587 29.5656 0.840752 29.2374 0.512563C28.9093 0.184375 28.4641 0 28 0C27.5359 0 27.0907 0.184375 26.7626 0.512563C26.4344 0.840752 26.25 1.28587 26.25 1.75V3.5H21V1.75C21 1.28587 20.8156 0.840752 20.4874 0.512563C20.1593 0.184375 19.7141 0 19.25 0C18.7859 0 18.3408 0.184375 18.0126 0.512563C17.6844 0.840752 17.5 1.28587 17.5 1.75V3.5H12.25V1.75C12.25 1.28587 12.0656 0.840752 11.7374 0.512563C11.4092 0.184375 10.9641 0 10.5 0C10.0359 0 9.59075 0.184375 9.26256 0.512563C8.93437 0.840752 8.75 1.28587 8.75 1.75V3.5H5.25C3.85761 3.5 2.52226 4.05312 1.53769 5.03769C0.553124 6.02226 0 7.35761 0 8.75V33.25C0 34.6424 0.553124 35.9777 1.53769 36.9623C2.52226 37.9469 3.85761 38.5 5.25 38.5H33.25C34.6424 38.5 35.9777 37.9469 36.9623 36.9623C37.9469 35.9777 38.5 34.6424 38.5 33.25V8.75C38.5 7.35761 37.9469 6.02226 36.9623 5.03769C35.9777 4.05312 34.6424 3.5 33.25 3.5ZM3.5 8.75C3.5 8.28587 3.68437 7.84075 4.01256 7.51256C4.34075 7.18437 4.78587 7 5.25 7H8.75V8.75C8.75 9.21413 8.93437 9.65925 9.26256 9.98744C9.59075 10.3156 10.0359 10.5 10.5 10.5C10.9641 10.5 11.4092 10.3156 11.7374 9.98744C12.0656 9.65925 12.25 9.21413 12.25 8.75V7H17.5V8.75C17.5 9.21413 17.6844 9.65925 18.0126 9.98744C18.3408 10.3156 18.7859 10.5 19.25 10.5C19.7141 10.5 20.1593 10.3156 20.4874 9.98744C20.8156 9.65925 21 9.21413 21 8.75V7H26.25V8.75C26.25 9.21413 26.4344 9.65925 26.7626 9.98744C27.0907 10.3156 27.5359 10.5 28 10.5C28.4641 10.5 28.9093 10.3156 29.2374 9.98744C29.5656 9.65925 29.75 9.21413 29.75 8.75V7H33.25C33.7141 7 34.1592 7.18437 34.4874 7.51256C34.8156 7.84075 35 8.28587 35 8.75V14H3.5V8.75ZM35 33.25C35 33.7141 34.8156 34.1592 34.4874 34.4874C34.1592 34.8156 33.7141 35 33.25 35H5.25C4.78587 35 4.34075 34.8156 4.01256 34.4874C3.68437 34.1592 3.5 33.7141 3.5 33.25V17.5H35V33.25Z" fill="#4D44B5"/>
</svg>
