<svg width="52" height="56" viewBox="0 0 52 56" fill="none" xmlns="http://www.w3.org/2000/svg">
<path d="M48.3372 30.5809C45.1999 29.444 41.7195 29.6968 38.7768 31.2724L33.9797 33.4303C33.5921 31.221 31.8952 29.5607 29.8009 29.4969C29.7885 29.4966 22.6082 29.4156 22.6082 29.4156C16.861 27.8391 13.1267 29.8648 10.9965 31.8611C10.5608 32.2694 10.1776 32.6898 9.84044 33.1044C9.26561 32.4853 8.25091 32.3199 7.51094 32.7267L0.993042 36.3095C0.147657 36.7743 -0.220172 37.7939 0.134375 38.6901L6.50426 54.7928C6.92282 55.8508 8.20915 56.3184 9.21284 55.7667L15.7307 52.1839C16.3417 51.848 16.7014 51.2222 16.7211 50.5627H26.4491C28.0359 50.5627 29.6025 50.146 30.9795 49.3574C30.9795 49.3574 49.2752 38.8624 49.3785 38.7686C51.9406 36.4378 52.0196 31.9152 48.3372 30.5809C49.8061 31.1131 45.1999 29.444 48.3372 30.5809ZM9.27111 51.3632L4.32157 38.8511L7.45231 37.1303L12.4018 49.6423L9.27111 51.3632ZM46.9303 35.8082L29.0707 46.0357C28.2737 46.4922 27.367 46.7334 26.4488 46.7334H15.3748L11.6565 37.3338C11.975 36.6848 12.6024 35.6079 13.6213 34.6531C15.708 32.6977 18.4585 32.1972 21.7968 33.1658C21.9637 33.2142 22.1365 33.2397 22.3103 33.2417L29.6912 33.3248C29.8797 33.3411 30.2276 33.76 30.2276 34.3951C30.2276 35.0489 29.8683 35.4658 29.6805 35.4658H22.4284V39.2951H29.6805C30.5789 39.2951 31.4149 38.9913 32.1109 38.4708L40.4151 34.7353C40.4592 34.7155 40.5022 34.6942 40.5446 34.6711C42.5367 33.5879 44.9002 33.409 47.0286 34.1803C47.8709 34.4857 47.2624 35.471 46.9303 35.8082ZM35.406 27.5911C27.7997 27.5911 21.6115 21.4024 21.6115 13.7955C21.6115 6.18872 27.7996 0 35.406 0C43.0124 0 49.2006 6.18872 49.2006 13.7955C49.2006 21.4024 43.0123 27.5911 35.406 27.5911ZM35.406 3.8293C29.9145 3.8293 25.447 8.30009 25.447 13.7955C25.447 19.2909 29.9146 23.7617 35.406 23.7617C40.8976 23.7617 45.3652 19.2908 45.3652 13.7955C45.3652 8.30021 40.8975 3.8293 35.406 3.8293Z" fill="#4D44B5"/>
</svg>
