<svg width="37" height="40" viewBox="0 0 37 40" fill="none" xmlns="http://www.w3.org/2000/svg">
<path d="M34.5266 21.8435C32.2856 21.0315 29.7997 21.212 27.6977 22.3374L24.2712 23.8788C23.9944 22.3007 22.7823 21.1148 21.2863 21.0692C21.2775 21.069 16.1487 21.0111 16.1487 21.0111C12.0436 19.885 9.37624 21.332 7.85462 22.7579C7.54342 23.0496 7.26974 23.3498 7.02889 23.646C6.61829 23.2038 5.8935 23.0856 5.36496 23.3762L0.709316 25.9354C0.105469 26.2674 -0.157266 26.9956 0.0959823 27.6358L4.6459 39.1377C4.94487 39.8934 5.86368 40.2274 6.5806 39.8333L11.2362 37.2742C11.6726 37.0343 11.9296 36.5873 11.9437 36.1162H18.8922C20.0256 36.1162 21.1446 35.8185 22.1282 35.2553C22.1282 35.2553 35.1966 27.7589 35.2703 27.6919C37.1004 26.027 37.1568 22.7966 34.5266 21.8435C35.5758 22.2237 32.2856 21.0315 34.5266 21.8435ZM6.62222 36.688L3.08684 27.7508L5.32308 26.5216L8.85846 35.4588L6.62222 36.688ZM33.5216 25.5773L20.7648 32.8826C20.1955 33.2087 19.5479 33.381 18.892 33.381H10.982L8.32607 26.667C8.55359 26.2034 9.00171 25.4342 9.72949 24.7522C11.22 23.3555 13.1846 22.998 15.5691 23.6898C15.6884 23.7244 15.8118 23.7427 15.9359 23.7441L21.208 23.8034C21.3426 23.815 21.5911 24.1143 21.5911 24.5679C21.5911 25.035 21.3345 25.3327 21.2003 25.3327H16.0203V28.0679H21.2003C21.8421 28.0679 22.4392 27.8509 22.9363 27.4791L28.8679 24.8109C28.8994 24.7968 28.9302 24.7815 28.9604 24.765C30.3833 23.9914 32.0715 23.8636 33.5919 24.4145C34.1935 24.6327 33.7589 25.3364 33.5216 25.5773ZM25.29 19.7079C19.8569 19.7079 15.4368 15.2874 15.4368 9.85393C15.4368 4.42051 19.8568 0 25.29 0C30.7232 0 35.1432 4.42051 35.1432 9.85393C35.1432 15.2874 30.7231 19.7079 25.29 19.7079ZM25.29 2.73521C21.3675 2.73521 18.1764 5.92863 18.1764 9.85393C18.1764 13.7792 21.3676 16.9727 25.29 16.9727C29.2126 16.9727 32.4037 13.7791 32.4037 9.85393C32.4037 5.92872 29.2125 2.73521 25.29 2.73521Z" fill="#C1BBEB"/>
</svg>
