<svg width="38" height="47" viewBox="0 0 38 47" fill="none" xmlns="http://www.w3.org/2000/svg">
<path d="M10.6231 0.246167C7.42315 1.83249 4.73176 4.28374 2.85414 7.32191C0.976515 10.3601 -0.0122038 13.8636 0.0001137 17.4351V25.7367C0.00159565 26.9553 0.486362 28.1236 1.34808 28.9854C2.2098 29.8471 3.37812 30.3319 4.59678 30.3333H9.33345V44.3333C9.33345 44.9522 9.57928 45.5457 10.0169 45.9833C10.4544 46.4208 11.0479 46.6667 11.6668 46.6667C12.2856 46.6667 12.8791 46.4208 13.3167 45.9833C13.7543 45.5457 14.0001 44.9522 14.0001 44.3333V2.33333C13.9998 1.9357 13.8979 1.54475 13.7041 1.19753C13.5103 0.850317 13.2311 0.558345 12.8928 0.349295C12.5546 0.140246 12.1686 0.0210477 11.7714 0.00299962C11.3741 -0.0150484 10.9789 0.068652 10.6231 0.246167ZM9.33345 25.69L4.66678 25.7367V17.4351C4.65978 15.4269 5.07111 13.4392 5.87456 11.5986C6.67802 9.75804 7.85599 8.10499 9.33345 6.74473V25.69ZM32.6668 2.33333V11.6667C32.666 12.2853 32.4199 12.8783 31.9825 13.3157C31.5451 13.7531 30.952 13.9992 30.3334 14V2.33333C30.3334 1.71449 30.0876 1.121 29.65 0.683417C29.2124 0.245833 28.619 0 28.0001 0C27.3813 0 26.7878 0.245833 26.3502 0.683417C25.9126 1.121 25.6668 1.71449 25.6668 2.33333V14C25.0482 13.9992 24.4552 13.7531 24.0177 13.3157C23.5803 12.8783 23.3342 12.2853 23.3334 11.6667V2.33333C23.3334 1.71449 23.0876 1.121 22.65 0.683417C22.2124 0.245833 21.619 0 21.0001 0C20.3813 0 19.7878 0.245833 19.3502 0.683417C18.9126 1.121 18.6668 1.71449 18.6668 2.33333V11.6667C18.6688 13.5226 19.407 15.3019 20.7193 16.6142C22.0316 17.9265 23.8109 18.6646 25.6668 18.6667V44.3333C25.6668 44.9522 25.9126 45.5457 26.3502 45.9833C26.7878 46.4208 27.3813 46.6667 28.0001 46.6667C28.619 46.6667 29.2124 46.4208 29.65 45.9833C30.0876 45.5457 30.3334 44.9522 30.3334 44.3333V18.6667C32.1893 18.6646 33.9686 17.9265 35.2809 16.6142C36.5933 15.3019 37.3314 13.5226 37.3334 11.6667V2.33333C37.3334 1.71449 37.0876 1.121 36.65 0.683417C36.2124 0.245833 35.6189 0 35.0001 0C34.3813 0 33.7878 0.245833 33.3502 0.683417C32.9126 1.121 32.6668 1.71449 32.6668 2.33333Z" fill="#4D44B5"/>
</svg>
