<svg width="27" height="34" viewBox="0 0 27 34" fill="none" xmlns="http://www.w3.org/2000/svg">
<path d="M7.58791 0.175833C5.30225 1.30892 3.37983 3.05982 2.03867 5.22994C0.697511 7.40006 -0.00871703 9.90258 8.12141e-05 12.4537V18.3833C0.00113975 19.2538 0.347401 20.0883 0.962916 20.7038C1.57843 21.3193 2.41295 21.6656 3.28341 21.6667H6.66675V31.6667C6.66675 32.1087 6.84234 32.5326 7.1549 32.8452C7.46746 33.1577 7.89139 33.3333 8.33341 33.3333C8.77544 33.3333 9.19936 33.1577 9.51192 32.8452C9.82449 32.5326 10.0001 32.1087 10.0001 31.6667V1.66667C9.99984 1.38265 9.92706 1.10339 9.78865 0.855381C9.65024 0.607369 9.45077 0.398818 9.20917 0.249497C8.96757 0.100176 8.69184 0.0150341 8.40811 0.00214259C8.12438 -0.0107489 7.84206 0.0490371 7.58791 0.175833ZM6.66675 18.35L3.33341 18.3833V12.4537C3.32841 11.0192 3.62222 9.59939 4.19611 8.28471C4.77001 6.97003 5.61142 5.78928 6.66675 4.81767V18.35ZM23.3334 1.66667V8.33333C23.3328 8.77519 23.1571 9.19878 22.8446 9.51121C22.5322 9.82365 22.1086 9.99943 21.6667 10V1.66667C21.6667 1.22464 21.4912 0.800716 21.1786 0.488155C20.866 0.175595 20.4421 0 20.0001 0C19.5581 0 19.1341 0.175595 18.8216 0.488155C18.509 0.800716 18.3334 1.22464 18.3334 1.66667V10C17.8916 9.99943 17.468 9.82365 17.1555 9.51121C16.8431 9.19878 16.6673 8.77519 16.6667 8.33333V1.66667C16.6667 1.22464 16.4912 0.800716 16.1786 0.488155C15.866 0.175595 15.4421 0 15.0001 0C14.5581 0 14.1341 0.175595 13.8216 0.488155C13.509 0.800716 13.3334 1.22464 13.3334 1.66667V8.33333C13.3349 9.65897 13.8621 10.9299 14.7995 11.8673C15.7369 12.8046 17.0078 13.3319 18.3334 13.3333V31.6667C18.3334 32.1087 18.509 32.5326 18.8216 32.8452C19.1341 33.1577 19.5581 33.3333 20.0001 33.3333C20.4421 33.3333 20.866 33.1577 21.1786 32.8452C21.4912 32.5326 21.6667 32.1087 21.6667 31.6667V13.3333C22.9924 13.3319 24.2633 12.8046 25.2007 11.8673C26.138 10.9299 26.6653 9.65897 26.6667 8.33333V1.66667C26.6667 1.22464 26.4912 0.800716 26.1786 0.488155C25.866 0.175595 25.4421 0 25.0001 0C24.5581 0 24.1341 0.175595 23.8216 0.488155C23.509 0.800716 23.3334 1.22464 23.3334 1.66667Z" fill="white"/>
</svg>
