<svg width="47" height="38" viewBox="0 0 47 38" fill="none" xmlns="http://www.w3.org/2000/svg">
<path d="M28.77 37.3156H28.28C27.2924 37.2176 26.3618 36.8074 25.6233 36.1444C24.8848 35.4814 24.3769 34.6003 24.1733 33.629L17.92 4.64896L11.48 19.5823C11.2978 19.9997 10.9975 20.3546 10.6161 20.6034C10.2346 20.8522 9.78873 20.9839 9.33333 20.9823H2.33333C1.71449 20.9823 1.121 20.7365 0.683417 20.2989C0.245833 19.8613 0 19.2678 0 18.649C0 18.0301 0.245833 17.4366 0.683417 16.999C1.121 16.5615 1.71449 16.3156 2.33333 16.3156H7.79333L13.65 2.80563C14.0442 1.89904 14.7162 1.14108 15.569 0.641023C16.4218 0.140967 17.4114 -0.0753406 18.3951 0.023286C19.3788 0.121913 20.3057 0.530378 21.0422 1.18979C21.7788 1.8492 22.2869 2.72548 22.4933 3.6923L28.7467 32.649L35.1867 17.7623C35.3617 17.3362 35.659 16.9714 36.041 16.714C36.423 16.4565 36.8727 16.3179 37.3333 16.3156H44.3333C44.9522 16.3156 45.5457 16.5615 45.9833 16.999C46.4208 17.4366 46.6667 18.0301 46.6667 18.649C46.6667 19.2678 46.4208 19.8613 45.9833 20.2989C45.5457 20.7365 44.9522 20.9823 44.3333 20.9823H38.8733L33.0167 34.4923C32.659 35.3242 32.0671 36.034 31.3131 36.5353C30.559 37.0366 29.6754 37.3078 28.77 37.3156Z" fill="#4D44B5"/>
</svg>
