<svg width="34" height="27" viewBox="0 0 34 27" fill="none" xmlns="http://www.w3.org/2000/svg">
<path d="M20.55 26.654H20.2C19.4946 26.584 18.8299 26.291 18.3024 25.8174C17.7749 25.3439 17.4121 24.7145 17.2667 24.0207L12.8 3.32069L8.2 13.9874C8.06989 14.2855 7.85538 14.539 7.58292 14.7167C7.31045 14.8944 6.99195 14.9885 6.66667 14.9874H1.66667C1.22464 14.9874 0.800716 14.8118 0.488155 14.4992C0.175595 14.1866 0 13.7627 0 13.3207C0 12.8787 0.175595 12.4547 0.488155 12.1422C0.800716 11.8296 1.22464 11.654 1.66667 11.654H5.56667L9.75 2.00402C10.0316 1.35646 10.5116 0.815056 11.1207 0.457873C11.7299 0.100691 12.4367 -0.0538148 13.1393 0.0166328C13.842 0.0870804 14.5041 0.378842 15.0302 0.849849C15.5563 1.32086 15.9192 1.94677 16.0667 2.63736L20.5333 23.3207L25.1333 12.6874C25.2584 12.383 25.4707 12.1224 25.7436 11.9386C26.0164 11.7547 26.3376 11.6557 26.6667 11.654H31.6667C32.1087 11.654 32.5326 11.8296 32.8452 12.1422C33.1577 12.4547 33.3333 12.8787 33.3333 13.3207C33.3333 13.7627 33.1577 14.1866 32.8452 14.4992C32.5326 14.8118 32.1087 14.9874 31.6667 14.9874H27.7667L23.5833 24.6374C23.3279 25.2315 22.9051 25.7386 22.3665 26.0967C21.8279 26.4547 21.1967 26.6484 20.55 26.654Z" fill="#C1BBEB"/>
</svg>
