<svg width="34" height="37" viewBox="0 0 34 37" fill="none" xmlns="http://www.w3.org/2000/svg">
<path d="M8.73067 36.7419C7.0029 36.7383 5.31493 36.2443 3.87955 35.3223C2.44417 34.4003 1.32565 33.0916 0.664972 31.5611C0.00429823 30.0306 -0.168946 28.3469 0.167079 26.7221C0.503105 25.0973 1.33336 23.6043 2.55317 22.4313L17.3932 8.18771C17.8815 7.71953 18.4613 7.34816 19.0993 7.09478C19.7374 6.84141 20.4213 6.711 21.1119 6.711C21.8026 6.711 22.4864 6.84141 23.1245 7.09478C23.7626 7.34816 24.3423 7.71953 24.8307 8.18771C25.319 8.65588 25.7064 9.21168 25.9707 9.82338C26.235 10.4351 26.371 11.0907 26.371 11.7528C26.371 12.4149 26.235 13.0705 25.9707 13.6822C25.7064 14.2939 25.319 14.8497 24.8307 15.3179L9.97317 29.5446C9.81629 29.7203 9.62323 29.8629 9.40612 29.9636C9.18901 30.0643 8.95252 30.1209 8.71152 30.1298C8.47051 30.1387 8.23018 30.0998 8.00561 30.0155C7.78104 29.9311 7.57708 29.8032 7.40653 29.6397C7.23599 29.4762 7.10254 29.2807 7.01456 29.0654C6.92658 28.8501 6.88597 28.6197 6.89527 28.3886C6.90458 28.1576 6.96361 27.9309 7.06865 27.7227C7.17369 27.5146 7.32248 27.3295 7.50567 27.1791L22.3457 12.9356C22.6324 12.6146 22.7822 12.2018 22.7652 11.7795C22.7482 11.3573 22.5656 10.9568 22.2539 10.658C21.9422 10.3592 21.5244 10.1842 21.084 10.1679C20.6436 10.1516 20.213 10.2952 19.8782 10.57L5.02067 24.7968C4.0344 25.7423 3.48031 27.0247 3.48031 28.3619C3.48031 29.699 4.0344 30.9814 5.02067 31.927C6.00695 32.8725 7.34462 33.4037 8.73942 33.4037C10.1342 33.4037 11.4719 32.8725 12.4582 31.927L27.2982 17.6834C28.8921 16.1013 29.774 13.9824 29.7541 11.783C29.7341 9.58356 28.8139 7.47963 27.1916 5.92435C25.5693 4.36907 23.3747 3.48687 21.0804 3.46776C18.7862 3.44864 16.5759 4.29415 14.9257 5.82217L6.26317 14.2106C5.93529 14.5231 5.49175 14.6985 5.02942 14.6985C4.5671 14.6985 4.12356 14.5231 3.79567 14.2106C3.63165 14.0546 3.50146 13.8691 3.41261 13.6646C3.32377 13.4602 3.27803 13.2409 3.27803 13.0194C3.27803 12.798 3.32377 12.5787 3.41261 12.3742C3.50146 12.1698 3.63165 11.9842 3.79567 11.8283L12.4582 3.43986C14.7556 1.23735 17.8716 0 21.1207 0C24.3697 0 27.4857 1.23735 29.7832 3.43986C32.0806 5.64236 33.3713 8.62959 33.3713 11.7444C33.3713 14.8592 32.0806 17.8464 29.7832 20.0489L14.9257 34.2925C14.1116 35.071 13.1454 35.688 12.0825 36.1083C11.0195 36.5286 9.88051 36.7439 8.73067 36.7419Z" fill="#4D44B5"/>
</svg>
