<svg width="27" height="26" viewBox="0 0 27 26" fill="none" xmlns="http://www.w3.org/2000/svg">
<path d="M12.3777 0.671672C12.689 -0.223888 13.9555 -0.223888 14.2668 0.671672L16.8556 8.11929C16.9929 8.51436 17.3616 8.78223 17.7798 8.79075L25.6629 8.9514C26.6108 8.97072 27.0022 10.1753 26.2467 10.7481L19.9635 15.5116C19.6302 15.7643 19.4894 16.1977 19.6105 16.598L21.8938 24.1449C22.1683 25.0524 21.1437 25.7969 20.3654 25.2553L13.8934 20.7517C13.5501 20.5128 13.0944 20.5128 12.7511 20.7517L6.27911 25.2553C5.50087 25.7969 4.47622 25.0524 4.75077 24.1449L7.034 16.598C7.15512 16.1977 7.01429 15.7643 6.68099 15.5116L0.397864 10.7481C-0.357669 10.1753 0.0337119 8.97072 0.981636 8.9514L8.86472 8.79075C9.28289 8.78223 9.65159 8.51436 9.78891 8.11929L12.3777 0.671672Z" fill="#FCC43E"/>
</svg>
