<svg width="42" height="42" viewBox="0 0 42 42" fill="none" xmlns="http://www.w3.org/2000/svg">
<path d="M41.3 37.975L31.5 28.175C33.775 25.2 35.175 21.525 35.175 17.5C35.175 7.875 27.3 0 17.675 0C8.05 0 0 7.875 0 17.5C0 27.125 7.875 35 17.5 35C21.525 35 25.375 33.6 28.35 31.15L38.15 40.95C38.5 41.3 39.2 41.65 39.725 41.65C40.25 41.65 40.775 41.475 41.3 40.95C42.175 40.25 42.175 38.85 41.3 37.975ZM4.375 17.5C4.375 10.325 10.325 4.375 17.5 4.375C24.675 4.375 30.625 10.325 30.625 17.5C30.625 24.675 24.675 30.625 17.5 30.625C10.325 30.625 4.375 24.85 4.375 17.5Z" fill="#4D44B5"/>
</svg>
