<svg width="42" height="53" viewBox="0 0 42 53" fill="none" xmlns="http://www.w3.org/2000/svg">
<path fill-rule="evenodd" clip-rule="evenodd" d="M18.1003 52.5H5.25C2.35025 52.5 0 50.1497 0 47.25V32.6708C0 30.1333 1.81475 27.9598 4.31025 27.5065C8.00975 26.8328 14.3885 25.6725 17.997 25.018C19.9832 24.6557 22.0168 24.6557 24.003 25.018C27.6115 25.6725 33.9903 26.8328 37.6898 27.5065C40.1853 27.9598 42 30.1333 42 32.6708C42 36.4875 42 43.1655 42 47.25C42 50.1497 39.6497 52.5 36.75 52.5H18.1003ZM34.699 30.52L34.706 30.5288C35.0123 30.9873 35.084 31.563 34.9002 32.0827L33.6647 35.5827C33.5037 36.0395 33.159 36.4105 32.7145 36.6048L30.3905 37.618L31.3145 39.4677C31.5735 39.984 31.5595 40.5947 31.2795 41.1005L26.8905 49H36.75C37.716 49 38.5 48.216 38.5 47.25C38.5 43.1655 38.5 36.4875 38.5 32.6708C38.5 31.8255 37.8945 31.101 37.0633 30.9487L34.699 30.52ZM29.9128 29.6485L23.3765 28.4603C21.805 28.175 20.195 28.175 18.6235 28.4603L12.0872 29.6485L10.6908 31.7433L11.382 33.6998L14.7 35.1452C15.1393 35.3377 15.4805 35.7017 15.645 36.1532C15.8095 36.6047 15.7797 37.1035 15.5645 37.5323L14.2275 40.2063L19.1135 49H22.8865L27.7725 40.2063L26.4355 37.5323C26.2203 37.1035 26.1905 36.6047 26.355 36.1532C26.5195 35.7017 26.8607 35.3377 27.3 35.1452L30.618 33.6998L31.3093 31.7433L29.9128 29.6485ZM7.30099 30.52L4.93675 30.9487C4.1055 31.101 3.5 31.8255 3.5 32.6708V47.25C3.5 48.216 4.284 49 5.25 49H15.1095L10.7205 41.1005C10.4405 40.5947 10.4265 39.984 10.6855 39.4677L11.6095 37.618L9.2855 36.6048C8.841 36.4105 8.49625 36.0395 8.33525 35.5827L7.09975 32.0827C6.916 31.563 6.98775 30.9873 7.294 30.5288L7.30099 30.52ZM33.25 40.25V43.75C33.25 44.716 34.034 45.5 35 45.5C35.966 45.5 36.75 44.716 36.75 43.75V40.25C36.75 39.284 35.966 38.5 35 38.5C34.034 38.5 33.25 39.284 33.25 40.25ZM21 0C14.7227 0 9.625 5.09775 9.625 11.375C9.625 17.6523 14.7227 22.75 21 22.75C27.2773 22.75 32.375 17.6523 32.375 11.375C32.375 5.09775 27.2773 0 21 0ZM21 3.5C25.347 3.5 28.875 7.028 28.875 11.375C28.875 15.722 25.347 19.25 21 19.25C16.653 19.25 13.125 15.722 13.125 11.375C13.125 7.028 16.653 3.5 21 3.5Z" fill="#4D44B5"/>
</svg>
