<svg width="30" height="38" viewBox="0 0 30 38" fill="none" xmlns="http://www.w3.org/2000/svg">
<path fill-rule="evenodd" clip-rule="evenodd" d="M12.9288 37.5H3.75C1.67875 37.5 0 35.8213 0 33.75V23.3363C0 21.5238 1.29625 19.9713 3.07875 19.6475C5.72125 19.1663 10.2775 18.3375 12.855 17.87C14.2737 17.6112 15.7263 17.6112 17.145 17.87C19.7225 18.3375 24.2788 19.1663 26.9213 19.6475C28.7038 19.9713 30 21.5238 30 23.3363C30 26.0625 30 30.8325 30 33.75C30 35.8213 28.3212 37.5 26.25 37.5H12.9288ZM24.785 21.8L24.79 21.8063C25.0088 22.1338 25.06 22.545 24.9287 22.9162L24.0462 25.4162C23.9312 25.7425 23.685 26.0075 23.3675 26.1463L21.7075 26.87L22.3675 28.1912C22.5525 28.56 22.5425 28.9962 22.3425 29.3575L19.2075 35H26.25C26.94 35 27.5 34.44 27.5 33.75C27.5 30.8325 27.5 26.0625 27.5 23.3363C27.5 22.7325 27.0675 22.215 26.4738 22.1062L24.785 21.8ZM21.3663 21.1775L16.6975 20.3288C15.575 20.125 14.425 20.125 13.3025 20.3288L8.63375 21.1775L7.63625 22.6738L8.13 24.0713L10.5 25.1037C10.8138 25.2412 11.0575 25.5012 11.175 25.8237C11.2925 26.1462 11.2712 26.5025 11.1175 26.8088L10.1625 28.7188L13.6525 35H16.3475L19.8375 28.7188L18.8825 26.8088C18.7288 26.5025 18.7075 26.1462 18.825 25.8237C18.9425 25.5012 19.1862 25.2412 19.5 25.1037L21.87 24.0713L22.3638 22.6738L21.3663 21.1775ZM5.215 21.8L3.52625 22.1062C2.9325 22.215 2.5 22.7325 2.5 23.3363V33.75C2.5 34.44 3.06 35 3.75 35H10.7925L7.6575 29.3575C7.4575 28.9962 7.4475 28.56 7.6325 28.1912L8.2925 26.87L6.6325 26.1463C6.315 26.0075 6.06875 25.7425 5.95375 25.4162L5.07125 22.9162C4.94 22.545 4.99125 22.1338 5.21 21.8063L5.215 21.8ZM23.75 28.75V31.25C23.75 31.94 24.31 32.5 25 32.5C25.69 32.5 26.25 31.94 26.25 31.25V28.75C26.25 28.06 25.69 27.5 25 27.5C24.31 27.5 23.75 28.06 23.75 28.75ZM15 0C10.5163 0 6.875 3.64125 6.875 8.125C6.875 12.6087 10.5163 16.25 15 16.25C19.4837 16.25 23.125 12.6087 23.125 8.125C23.125 3.64125 19.4837 0 15 0ZM15 2.5C18.105 2.5 20.625 5.02 20.625 8.125C20.625 11.23 18.105 13.75 15 13.75C11.895 13.75 9.375 11.23 9.375 8.125C9.375 5.02 11.895 2.5 15 2.5Z" fill="#C1BBEB"/>
</svg>
