<svg width="42" height="53" viewBox="0 0 42 53" fill="none" xmlns="http://www.w3.org/2000/svg">
<path fill-rule="evenodd" clip-rule="evenodd" d="M0 47.25C0 50.1497 2.35025 52.5 5.25 52.5H36.75C39.6497 52.5 42 50.1497 42 47.25C42 43.1655 42 36.4875 42 32.6708C42 30.1333 40.1853 27.9598 37.6898 27.5065C33.9903 26.8328 27.6115 25.6725 24.003 25.018C22.0168 24.6557 19.9832 24.6557 17.997 25.018C14.3885 25.6725 8.00975 26.8328 4.31025 27.5065C1.81475 27.9598 0 30.1333 0 32.6708V47.25ZM25.039 28.763L27.6657 38.7503C28.0105 40.061 27.5485 41.4523 26.488 42.2993C25.592 43.0133 24.1798 44.1403 23.1998 44.9243C21.9135 45.9498 20.0865 45.9498 18.8002 44.9243C17.8202 44.1403 16.408 43.0133 15.512 42.2993C14.4515 41.4523 13.9895 40.061 14.3343 38.7503L16.961 28.763L4.93675 30.9487C4.1055 31.101 3.5 31.8255 3.5 32.6708V47.25C3.5 48.216 4.284 49 5.25 49C12.572 49 29.428 49 36.75 49C37.716 49 38.5 48.216 38.5 47.25C38.5 43.1655 38.5 36.4875 38.5 32.6708C38.5 31.8255 37.8945 31.101 37.0633 30.9487L25.039 28.763ZM21.2853 28.2503C21.0945 28.245 20.9055 28.245 20.7147 28.2503L17.7328 39.5938L20.9842 42.1872C20.993 42.196 21.007 42.196 21.0158 42.1872L24.2672 39.5938L21.2853 28.2503ZM21 0C14.7227 0 9.625 5.09775 9.625 11.375C9.625 17.6523 14.7227 22.75 21 22.75C27.2773 22.75 32.375 17.6523 32.375 11.375C32.375 5.09775 27.2773 0 21 0ZM21 3.5C25.347 3.5 28.875 7.028 28.875 11.375C28.875 15.722 25.347 19.25 21 19.25C16.653 19.25 13.125 15.722 13.125 11.375C13.125 7.028 16.653 3.5 21 3.5Z" fill="#4D44B5"/>
</svg>
