<svg width="30" height="38" viewBox="0 0 30 38" fill="none" xmlns="http://www.w3.org/2000/svg">
<path fill-rule="evenodd" clip-rule="evenodd" d="M0 33.75C0 35.8213 1.67875 37.5 3.75 37.5H26.25C28.3212 37.5 30 35.8213 30 33.75C30 30.8325 30 26.0625 30 23.3363C30 21.5238 28.7038 19.9713 26.9213 19.6475C24.2788 19.1663 19.7225 18.3375 17.145 17.87C15.7263 17.6112 14.2737 17.6112 12.855 17.87C10.2775 18.3375 5.72125 19.1663 3.07875 19.6475C1.29625 19.9713 0 21.5238 0 23.3363V33.75ZM17.885 20.545L19.7612 27.6788C20.0075 28.615 19.6775 29.6088 18.92 30.2138C18.28 30.7238 17.2713 31.5288 16.5713 32.0888C15.6525 32.8213 14.3475 32.8213 13.4287 32.0888C12.7287 31.5288 11.72 30.7238 11.08 30.2138C10.3225 29.6088 9.9925 28.615 10.2388 27.6788L12.115 20.545L3.52625 22.1062C2.9325 22.215 2.5 22.7325 2.5 23.3363V33.75C2.5 34.44 3.06 35 3.75 35C8.98 35 21.02 35 26.25 35C26.94 35 27.5 34.44 27.5 33.75C27.5 30.8325 27.5 26.0625 27.5 23.3363C27.5 22.7325 27.0675 22.215 26.4738 22.1062L17.885 20.545ZM15.2038 20.1788C15.0675 20.175 14.9325 20.175 14.7962 20.1788L12.6663 28.2812L14.9887 30.1337C14.995 30.14 15.005 30.14 15.0113 30.1337L17.3337 28.2812L15.2038 20.1788ZM15 0C10.5163 0 6.875 3.64125 6.875 8.125C6.875 12.6087 10.5163 16.25 15 16.25C19.4837 16.25 23.125 12.6087 23.125 8.125C23.125 3.64125 19.4837 0 15 0ZM15 2.5C18.105 2.5 20.625 5.02 20.625 8.125C20.625 11.23 18.105 13.75 15 13.75C11.895 13.75 9.375 11.23 9.375 8.125C9.375 5.02 11.895 2.5 15 2.5Z" fill="#C1BBEB"/>
</svg>
