<svg width="18" height="23" viewBox="0 0 18 23" fill="none" xmlns="http://www.w3.org/2000/svg">
<path d="M12.5858 5.57984C12.5858 5.78609 12.5717 5.99234 12.5459 6.19625C12.5576 6.11422 12.5694 6.02984 12.5787 5.94781C12.5225 6.35562 12.4147 6.75172 12.2576 7.1314C12.2881 7.0564 12.3209 6.9814 12.3514 6.9064C12.1944 7.27672 11.9928 7.62359 11.7467 7.94234C11.7959 7.87906 11.8451 7.81578 11.8944 7.7525C11.6506 8.06656 11.367 8.35015 11.053 8.5939C11.1162 8.54468 11.1795 8.49547 11.2428 8.44625C10.924 8.69 10.5772 8.8939 10.2069 9.05093C10.2819 9.02047 10.3569 8.98765 10.4319 8.95718C10.0522 9.11422 9.65608 9.22203 9.24826 9.27828C9.33029 9.26656 9.41467 9.25484 9.4967 9.24547C9.08654 9.29937 8.67404 9.29937 8.26389 9.24547C8.34592 9.25718 8.43029 9.2689 8.51232 9.27828C8.10451 9.22203 7.70842 9.11422 7.32873 8.95718C7.40373 8.98765 7.47873 9.02047 7.55373 9.05093C7.18342 8.8939 6.83654 8.69234 6.51779 8.44625C6.58107 8.49547 6.64435 8.54468 6.70763 8.5939C6.39357 8.35015 6.10998 8.06656 5.86623 7.7525C5.91545 7.81578 5.96467 7.87906 6.01389 7.94234C5.77013 7.62359 5.56623 7.27672 5.4092 6.9064C5.43967 6.9814 5.47248 7.0564 5.50295 7.1314C5.34591 6.75172 5.2381 6.35562 5.18185 5.94781C5.19357 6.02984 5.20529 6.11422 5.21467 6.19625C5.16076 5.78609 5.16076 5.37359 5.21467 4.96344C5.20295 5.04547 5.19123 5.12984 5.18185 5.21187C5.2381 4.80406 5.34591 4.40797 5.50295 4.02828C5.47248 4.10328 5.43967 4.17828 5.4092 4.25328C5.56623 3.88297 5.76779 3.53609 6.01389 3.21734C5.96467 3.28062 5.91545 3.3439 5.86623 3.40719C6.10998 3.09312 6.39357 2.80953 6.70763 2.56578C6.64435 2.615 6.58107 2.66422 6.51779 2.71344C6.83654 2.46969 7.18342 2.26578 7.55373 2.10875C7.47873 2.13922 7.40373 2.17203 7.32873 2.2025C7.70842 2.04547 8.10451 1.93765 8.51232 1.8814C8.43029 1.89312 8.34592 1.90484 8.26389 1.91422C8.67404 1.86031 9.08654 1.86031 9.4967 1.91422C9.41467 1.9025 9.33029 1.89078 9.24826 1.8814C9.65608 1.93765 10.0522 2.04547 10.4319 2.2025C10.3569 2.17203 10.2819 2.13922 10.2069 2.10875C10.5772 2.26578 10.924 2.46734 11.2428 2.71344C11.1795 2.66422 11.1162 2.615 11.053 2.56578C11.367 2.80953 11.6506 3.09312 11.8944 3.40719C11.8451 3.3439 11.7959 3.28062 11.7467 3.21734C11.9905 3.53609 12.1944 3.88297 12.3514 4.25328C12.3209 4.17828 12.2881 4.10328 12.2576 4.02828C12.4147 4.40797 12.5225 4.80406 12.5787 5.21187C12.567 5.12984 12.5553 5.04547 12.5459 4.96344C12.5717 5.16734 12.5834 5.37359 12.5858 5.57984C12.5881 6.06968 13.0147 6.54078 13.5233 6.51734C14.0295 6.4939 14.4631 6.10484 14.4608 5.57984C14.4561 4.45718 14.1186 3.30875 13.4576 2.39469C13.2795 2.14859 13.0897 1.90719 12.8787 1.68922C12.6655 1.4689 12.4311 1.27906 12.1873 1.0939C11.7444 0.756404 11.2498 0.507966 10.7248 0.315779C8.60842 -0.460002 6.05607 0.231404 4.62404 1.97515C4.42716 2.21422 4.23966 2.46265 4.08029 2.72984C3.92091 2.99469 3.7967 3.27594 3.68185 3.56187C3.46623 4.09156 3.35607 4.65406 3.31154 5.22359C3.22482 6.33922 3.51544 7.50406 4.0967 8.46031C4.65685 9.38375 5.50295 10.1759 6.49201 10.6236C6.78264 10.7548 7.08029 10.8767 7.38967 10.9634C7.6967 11.0478 8.00842 11.0947 8.32482 11.1322C8.90139 11.2002 9.48967 11.1533 10.0592 11.0384C12.2225 10.5978 14.0342 8.73453 14.3694 6.54781C14.4186 6.22906 14.4561 5.91031 14.4561 5.58687C14.4584 5.09703 14.0225 4.62594 13.5186 4.64937C13.0123 4.66578 12.5858 5.05484 12.5858 5.57984ZM15.6959 20.2353C15.2365 20.2353 14.7772 20.2353 14.3178 20.2353C13.2233 20.2353 12.1311 20.2353 11.0365 20.2353C9.71936 20.2353 8.40217 20.2353 7.08263 20.2353C5.94592 20.2353 4.8092 20.2353 3.67013 20.2353C3.1381 20.2353 2.60607 20.24 2.07404 20.2353C2.01544 20.2353 1.95685 20.2306 1.9006 20.2236C1.98263 20.2353 2.06701 20.247 2.14904 20.2564C2.05529 20.2423 1.96622 20.2166 1.87951 20.1814C1.95451 20.2119 2.02951 20.2447 2.10451 20.2752C2.01076 20.2353 1.92404 20.1837 1.84201 20.1205C1.90529 20.1697 1.96857 20.2189 2.03185 20.2681C1.96154 20.2095 1.89591 20.1462 1.83966 20.0759C1.88888 20.1392 1.9381 20.2025 1.98732 20.2658C1.92404 20.1837 1.87482 20.097 1.83263 20.0033C1.8631 20.0783 1.89591 20.1533 1.92638 20.2283C1.89122 20.1416 1.86779 20.0502 1.85138 19.9587C1.8631 20.0408 1.87482 20.1252 1.88419 20.2072C1.84669 19.9236 1.87247 19.6236 1.87247 19.3377C1.87247 19.0025 1.87247 18.6697 1.87247 18.3345C1.87247 18.0837 1.88654 17.8353 1.91935 17.5869C1.90763 17.6689 1.89591 17.7533 1.88654 17.8353C1.95216 17.3548 2.07872 16.8837 2.26857 16.4361C2.2381 16.5111 2.20529 16.5861 2.17482 16.6611C2.35763 16.2345 2.59201 15.8337 2.8756 15.4658C2.82638 15.5291 2.77716 15.5923 2.72794 15.6556C3.01154 15.2923 3.33732 14.9642 3.70295 14.6806C3.63966 14.7298 3.57638 14.7791 3.5131 14.8283C3.88107 14.5447 4.28185 14.3103 4.70841 14.1275C4.63341 14.158 4.55841 14.1908 4.48341 14.2212C4.93107 14.0337 5.39982 13.9048 5.88263 13.8392C5.8006 13.8509 5.71623 13.8627 5.6342 13.872C5.98107 13.8275 6.3256 13.8252 6.67482 13.8252C7.10373 13.8252 7.53264 13.8252 7.96154 13.8252C8.96232 13.8252 9.96311 13.8252 10.9639 13.8252C11.3506 13.8252 11.735 13.8228 12.1217 13.872C12.0397 13.8603 11.9553 13.8486 11.8733 13.8392C12.3537 13.9048 12.8248 14.0314 13.2725 14.2212C13.1975 14.1908 13.1225 14.158 13.0475 14.1275C13.474 14.3103 13.8748 14.5447 14.2428 14.8283C14.1795 14.7791 14.1162 14.7298 14.053 14.6806C14.4162 14.9642 14.7444 15.29 15.028 15.6556C14.9787 15.5923 14.9295 15.5291 14.8803 15.4658C15.1639 15.8337 15.3983 16.2345 15.5811 16.6611C15.5506 16.5861 15.5178 16.5111 15.4873 16.4361C15.6748 16.8837 15.8037 17.3525 15.8694 17.8353C15.8576 17.7533 15.8459 17.6689 15.8365 17.5869C15.8811 17.9408 15.8834 18.2923 15.8834 18.6486C15.8834 19.0353 15.8834 19.422 15.8834 19.8087C15.8834 19.9423 15.8881 20.0759 15.8717 20.2072C15.8834 20.1252 15.8951 20.0408 15.9045 19.9587C15.8905 20.0525 15.8647 20.1416 15.8295 20.2283C15.86 20.1533 15.8928 20.0783 15.9233 20.0033C15.8834 20.097 15.8319 20.1837 15.7686 20.2658C15.8178 20.2025 15.867 20.1392 15.9162 20.0759C15.8576 20.1462 15.7944 20.2119 15.724 20.2681C15.7873 20.2189 15.8506 20.1697 15.9139 20.1205C15.8319 20.1837 15.7451 20.233 15.6514 20.2752C15.7264 20.2447 15.8014 20.2119 15.8764 20.1814C15.7897 20.2166 15.6983 20.24 15.6069 20.2564C15.6889 20.2447 15.7733 20.233 15.8553 20.2236C15.8037 20.2306 15.7498 20.233 15.6959 20.2353C15.4545 20.2377 15.2061 20.3384 15.0326 20.5095C14.8709 20.6712 14.7467 20.9384 14.7584 21.1728C14.7819 21.6744 15.1709 22.1173 15.6959 22.1103C16.6076 22.0962 17.4092 21.5009 17.6764 20.6267C17.7819 20.2798 17.7584 19.9072 17.7584 19.5509C17.7584 18.7353 17.7842 17.9267 17.6436 17.1181C17.4373 15.9345 16.842 14.8212 16.0264 13.947C15.2108 13.0728 14.1139 12.4306 12.9537 12.1447C12.2881 11.9806 11.6178 11.9548 10.9381 11.9548C10.2397 11.9548 9.54358 11.9548 8.84514 11.9548C8.15607 11.9548 7.46935 11.9548 6.78029 11.9548C6.0842 11.9548 5.39279 11.9877 4.71545 12.1681C3.56466 12.4728 2.48185 13.122 1.68263 14.0033C0.87638 14.8916 0.292786 16.0072 0.102942 17.1978C-0.0236209 17.997 0.00216033 18.7986 0.00216033 19.6048C0.00216033 19.9752 -0.0189334 20.3619 0.114661 20.7158C0.288098 21.1705 0.564661 21.5291 0.97013 21.7986C1.28654 22.0072 1.68732 22.108 2.06232 22.1127C2.24513 22.115 2.42794 22.1127 2.61076 22.1127C3.07951 22.1127 3.54591 22.1127 4.01466 22.1127C4.68029 22.1127 5.34357 22.1127 6.0092 22.1127C6.78264 22.1127 7.55607 22.1127 8.32951 22.1127C9.12404 22.1127 9.91623 22.1127 10.7108 22.1127C11.4373 22.1127 12.1615 22.1127 12.8881 22.1127C13.4576 22.1127 14.0272 22.1127 14.5944 22.1127C14.9201 22.1127 15.2459 22.1127 15.5717 22.1127C15.6139 22.1127 15.6561 22.1127 15.6983 22.1127C16.1881 22.1127 16.6592 21.6814 16.6358 21.1752C16.6123 20.6642 16.2233 20.2353 15.6959 20.2353Z" fill="white"/>
</svg>
