<svg width="30" height="37" viewBox="0 0 30 37" fill="none" xmlns="http://www.w3.org/2000/svg">
<path d="M20.9763 9.29974C20.9763 9.64349 20.9528 9.98724 20.9099 10.3271C20.9294 10.1904 20.9489 10.0497 20.9646 9.91302C20.8708 10.5927 20.6911 11.2529 20.4294 11.8857C20.4802 11.7607 20.5349 11.6357 20.5856 11.5107C20.3239 12.1279 19.988 12.706 19.5778 13.2372C19.6599 13.1318 19.7419 13.0263 19.8239 12.9208C19.4177 13.4443 18.945 13.9169 18.4216 14.3232C18.5271 14.2411 18.6325 14.1591 18.738 14.0771C18.2067 14.4833 17.6286 14.8232 17.0114 15.0849C17.1364 15.0341 17.2614 14.9794 17.3864 14.9286C16.7536 15.1904 16.0935 15.37 15.4138 15.4638C15.5505 15.4443 15.6911 15.4247 15.8278 15.4091C15.1442 15.499 14.4567 15.499 13.7731 15.4091C13.9099 15.4286 14.0505 15.4482 14.1872 15.4638C13.5075 15.37 12.8474 15.1904 12.2145 14.9286C12.3396 14.9794 12.4646 15.0341 12.5896 15.0849C11.9724 14.8232 11.3942 14.4872 10.863 14.0771C10.9685 14.1591 11.0739 14.2411 11.1794 14.3232C10.656 13.9169 10.1833 13.4443 9.77705 12.9208C9.85908 13.0263 9.94111 13.1318 10.0231 13.2372C9.61689 12.706 9.27705 12.1279 9.01533 11.5107C9.06611 11.6357 9.1208 11.7607 9.17158 11.8857C8.90986 11.2529 8.73017 10.5927 8.63642 9.91302C8.65595 10.0497 8.67548 10.1904 8.69111 10.3271C8.60127 9.64349 8.60127 8.95599 8.69111 8.27239C8.67158 8.40911 8.65205 8.54974 8.63642 8.68645C8.73017 8.00677 8.90986 7.34661 9.17158 6.7138C9.1208 6.8388 9.06611 6.9638 9.01533 7.0888C9.27705 6.47161 9.61299 5.89349 10.0231 5.36224C9.94111 5.4677 9.85908 5.57317 9.77705 5.67864C10.1833 5.1552 10.656 4.68255 11.1794 4.2763C11.0739 4.35833 10.9685 4.44036 10.863 4.52239C11.3942 4.11614 11.9724 3.7763 12.5896 3.51458C12.4646 3.56536 12.3396 3.62005 12.2145 3.67083C12.8474 3.40911 13.5075 3.22942 14.1872 3.13567C14.0505 3.1552 13.9099 3.17474 13.7731 3.19036C14.4567 3.10052 15.1442 3.10052 15.8278 3.19036C15.6911 3.17083 15.5505 3.1513 15.4138 3.13567C16.0935 3.22942 16.7536 3.40911 17.3864 3.67083C17.2614 3.62005 17.1364 3.56536 17.0114 3.51458C17.6286 3.7763 18.2067 4.11224 18.738 4.52239C18.6325 4.44036 18.5271 4.35833 18.4216 4.2763C18.945 4.68255 19.4177 5.1552 19.8239 5.67864C19.7419 5.57317 19.6599 5.4677 19.5778 5.36224C19.9841 5.89349 20.3239 6.47161 20.5856 7.0888C20.5349 6.9638 20.4802 6.8388 20.4294 6.7138C20.6911 7.34661 20.8708 8.00677 20.9646 8.68645C20.945 8.54974 20.9255 8.40911 20.9099 8.27239C20.9528 8.61224 20.9724 8.95599 20.9763 9.29974C20.9802 10.1161 21.6911 10.9013 22.5388 10.8622C23.3825 10.8232 24.1052 10.1747 24.1013 9.29974C24.0935 7.42864 23.531 5.51458 22.4294 3.99114C22.1325 3.58099 21.8161 3.17864 21.4646 2.81536C21.1091 2.44817 20.7185 2.13177 20.3122 1.82317C19.5739 1.26067 18.7497 0.846611 17.8747 0.526298C14.3474 -0.766671 10.0935 0.385673 7.70673 3.29192C7.37861 3.69036 7.06611 4.10442 6.80048 4.54974C6.53486 4.99114 6.32783 5.45989 6.13642 5.93645C5.77704 6.81927 5.59345 7.75677 5.51923 8.70599C5.3747 10.5654 5.85908 12.5068 6.82783 14.1005C7.76142 15.6396 9.17158 16.9599 10.82 17.706C11.3044 17.9247 11.8005 18.1279 12.3161 18.2724C12.8278 18.413 13.3474 18.4911 13.8747 18.5536C14.8356 18.6669 15.8161 18.5888 16.7653 18.3974C20.3708 17.663 23.3903 14.5575 23.9489 10.913C24.031 10.3818 24.0935 9.85052 24.0935 9.31145C24.0974 8.49505 23.3708 7.70989 22.531 7.74895C21.6872 7.7763 20.9763 8.42474 20.9763 9.29974ZM26.1599 33.7255C25.3942 33.7255 24.6286 33.7255 23.863 33.7255C22.0388 33.7255 20.2185 33.7255 18.3942 33.7255C16.1989 33.7255 14.0036 33.7255 11.8044 33.7255C9.90986 33.7255 8.01533 33.7255 6.11689 33.7255C5.23017 33.7255 4.34345 33.7333 3.45673 33.7255C3.35907 33.7255 3.26142 33.7177 3.16767 33.706C3.30438 33.7255 3.44501 33.745 3.58173 33.7607C3.42548 33.7372 3.27704 33.6943 3.13251 33.6357C3.25751 33.6865 3.38251 33.7411 3.50751 33.7919C3.35126 33.7255 3.20673 33.6396 3.07001 33.5341C3.17548 33.6161 3.28095 33.6982 3.38642 33.7802C3.26923 33.6825 3.15985 33.5771 3.0661 33.4599C3.14813 33.5654 3.23017 33.6708 3.3122 33.7763C3.20673 33.6396 3.1247 33.495 3.05438 33.3388C3.10517 33.4638 3.15985 33.5888 3.21063 33.7138C3.15204 33.5693 3.11298 33.4169 3.08563 33.2646C3.10517 33.4013 3.1247 33.5419 3.14032 33.6786C3.07782 33.206 3.12079 32.706 3.12079 32.2294C3.12079 31.6708 3.12079 31.1161 3.12079 30.5575C3.12079 30.1396 3.14423 29.7255 3.19892 29.3115C3.17938 29.4482 3.15985 29.5888 3.14423 29.7255C3.2536 28.9247 3.46454 28.1396 3.78095 27.3935C3.73017 27.5185 3.67548 27.6435 3.6247 27.7685C3.92939 27.0575 4.32001 26.3896 4.79267 25.7763C4.71064 25.8818 4.6286 25.9872 4.54657 26.0927C5.01923 25.4872 5.5622 24.9404 6.17158 24.4677C6.06611 24.5497 5.96064 24.6318 5.85517 24.7138C6.46845 24.2411 7.13642 23.8505 7.84736 23.5458C7.72236 23.5966 7.59736 23.6513 7.47236 23.7021C8.21845 23.3896 8.9997 23.1747 9.80439 23.0654C9.66767 23.0849 9.52705 23.1044 9.39033 23.12C9.96845 23.0458 10.5427 23.0419 11.1247 23.0419C11.8395 23.0419 12.5544 23.0419 13.2692 23.0419C14.9372 23.0419 16.6052 23.0419 18.2732 23.0419C18.9177 23.0419 19.5583 23.038 20.2028 23.12C20.0661 23.1005 19.9255 23.081 19.7888 23.0654C20.5896 23.1747 21.3747 23.3857 22.1208 23.7021C21.9958 23.6513 21.8708 23.5966 21.7458 23.5458C22.4567 23.8505 23.1247 24.2411 23.738 24.7138C23.6325 24.6318 23.5271 24.5497 23.4216 24.4677C24.0271 24.9404 24.5739 25.4833 25.0466 26.0927C24.9646 25.9872 24.8825 25.8818 24.8005 25.7763C25.2732 26.3896 25.6638 27.0575 25.9685 27.7685C25.9177 27.6435 25.863 27.5185 25.8122 27.3935C26.1247 28.1396 26.3396 28.9208 26.4489 29.7255C26.4294 29.5888 26.4099 29.4482 26.3942 29.3115C26.4685 29.9013 26.4724 30.4872 26.4724 31.081C26.4724 31.7255 26.4724 32.37 26.4724 33.0146C26.4724 33.2372 26.4802 33.4599 26.4528 33.6786C26.4724 33.5419 26.4919 33.4013 26.5075 33.2646C26.4841 33.4208 26.4411 33.5693 26.3825 33.7138C26.4333 33.5888 26.488 33.4638 26.5388 33.3388C26.4724 33.495 26.3864 33.6396 26.281 33.7763C26.363 33.6708 26.445 33.5654 26.5271 33.4599C26.4294 33.5771 26.3239 33.6865 26.2067 33.7802C26.3122 33.6982 26.4177 33.6161 26.5232 33.5341C26.3864 33.6396 26.2419 33.7216 26.0857 33.7919C26.2107 33.7411 26.3357 33.6865 26.4607 33.6357C26.3161 33.6943 26.1638 33.7333 26.0114 33.7607C26.1482 33.7411 26.2888 33.7216 26.4255 33.706C26.3396 33.7177 26.2497 33.7216 26.1599 33.7255C25.7575 33.7294 25.3435 33.8974 25.0544 34.1825C24.7849 34.4521 24.5778 34.8974 24.5974 35.288C24.6364 36.124 25.2849 36.8622 26.1599 36.8505C27.6794 36.8271 29.0153 35.8349 29.4607 34.3779C29.6364 33.7997 29.5974 33.1786 29.5974 32.5849C29.5974 31.2255 29.6403 29.8779 29.406 28.5302C29.0622 26.5575 28.07 24.7021 26.7107 23.245C25.3513 21.788 23.5232 20.7177 21.5896 20.2411C20.4802 19.9677 19.363 19.9247 18.2302 19.9247C17.0661 19.9247 15.906 19.9247 14.7419 19.9247C13.5935 19.9247 12.4489 19.9247 11.3005 19.9247C10.1403 19.9247 8.98798 19.9794 7.85908 20.2802C5.94111 20.788 4.13642 21.87 2.80438 23.3388C1.46063 24.8193 0.487976 26.6786 0.17157 28.663C-0.0393681 29.995 0.00360055 31.331 0.00360055 32.6747C0.00360055 33.2919 -0.0315556 33.9365 0.191101 34.5263C0.480164 35.2841 0.941102 35.8818 1.61688 36.331C2.14423 36.6786 2.8122 36.8466 3.4372 36.8544C3.74189 36.8583 4.04657 36.8544 4.35126 36.8544C5.13251 36.8544 5.90986 36.8544 6.69111 36.8544C7.80048 36.8544 8.90595 36.8544 10.0153 36.8544C11.3044 36.8544 12.5935 36.8544 13.8825 36.8544C15.2067 36.8544 16.5271 36.8544 17.8513 36.8544C19.0622 36.8544 20.2692 36.8544 21.4802 36.8544C22.4294 36.8544 23.3786 36.8544 24.3239 36.8544C24.8669 36.8544 25.4099 36.8544 25.9528 36.8544C26.0232 36.8544 26.0935 36.8544 26.1638 36.8544C26.9802 36.8544 27.7653 36.1357 27.7263 35.2919C27.6872 34.4404 27.0388 33.7255 26.1599 33.7255Z" fill="#C1BBEB"/>
</svg>
