<svg width="38" height="47" viewBox="0 0 38 47" fill="none" xmlns="http://www.w3.org/2000/svg">
<path d="M18.6667 0C13.716 0 8.96802 1.96666 5.46734 5.46734C1.96666 8.96802 0 13.716 0 18.6667C0 31.2667 16.45 45.5 17.15 46.1067C17.5726 46.4682 18.1105 46.6668 18.6667 46.6668C19.2228 46.6668 19.7607 46.4682 20.1833 46.1067C21 45.5 37.3333 31.2667 37.3333 18.6667C37.3333 13.716 35.3667 8.96802 31.866 5.46734C28.3653 1.96666 23.6174 0 18.6667 0ZM18.6667 41.1833C13.6967 36.5167 4.66667 26.46 4.66667 18.6667C4.66667 14.9536 6.14166 11.3927 8.76717 8.76717C11.3927 6.14166 14.9536 4.66667 18.6667 4.66667C22.3797 4.66667 25.9407 6.14166 28.5662 8.76717C31.1917 11.3927 32.6667 14.9536 32.6667 18.6667C32.6667 26.46 23.6367 36.54 18.6667 41.1833ZM18.6667 9.33333C16.8207 9.33333 15.0162 9.88072 13.4813 10.9063C11.9465 11.9318 10.7502 13.3895 10.0438 15.095C9.33737 16.8004 9.15254 18.677 9.51267 20.4875C9.8728 22.298 10.7617 23.961 12.067 25.2663C13.3723 26.5716 15.0353 27.4605 16.8458 27.8207C18.6563 28.1808 20.5329 27.996 22.2384 27.2895C23.9438 26.5831 25.4015 25.3868 26.427 23.852C27.4526 22.3171 28 20.5126 28 18.6667C28 16.1913 27.0167 13.8173 25.2663 12.067C23.516 10.3167 21.142 9.33333 18.6667 9.33333ZM18.6667 23.3333C17.7437 23.3333 16.8414 23.0596 16.074 22.5469C15.3066 22.0341 14.7084 21.3052 14.3552 20.4525C14.002 19.5998 13.9096 18.6615 14.0897 17.7562C14.2697 16.851 14.7142 16.0195 15.3668 15.3668C16.0195 14.7142 16.851 14.2697 17.7562 14.0897C18.6615 13.9096 19.5998 14.002 20.4525 14.3552C21.3052 14.7084 22.0341 15.3066 22.5469 16.074C23.0596 16.8414 23.3333 17.7437 23.3333 18.6667C23.3333 19.9043 22.8417 21.0913 21.9665 21.9665C21.0913 22.8417 19.9043 23.3333 18.6667 23.3333Z" fill="#4D44B5"/>
</svg>
