<svg width="47" height="47" viewBox="0 0 47 47" fill="none" xmlns="http://www.w3.org/2000/svg">
<path d="M16.9395 0L15.4583 6.64909C14.6159 7.05446 13.8107 7.52135 13.0384 8.04818L6.53971 6.00195L0 17.3314L4.92643 21.8431C4.73396 23.2717 4.82114 23.976 4.92643 24.8236L0 29.3353L6.53971 40.6647L13.0384 38.6185C13.8107 39.1453 14.6159 39.6122 15.4583 40.0176L16.9395 46.6667H30.0189L31.5 40.0176C32.3424 39.6122 33.1477 39.1453 33.9199 38.6185L40.4186 40.6647L46.9583 29.3353L42.0319 24.8236C42.0722 24.3276 42.1453 23.8313 42.1458 23.3333C42.1477 22.8203 42.0669 22.3022 42.0319 21.8431L46.9583 17.3314L40.4186 6.00195L33.9199 8.04818C33.1477 7.52135 32.3424 7.05446 31.5 6.64909L30.0189 0H16.9395ZM20.6855 4.66667H26.2728L27.4258 9.84375L28.5833 10.2995C29.8928 10.8123 31.1168 11.5181 32.2155 12.3958L33.1908 13.1706L38.2493 11.5801L41.043 16.4199L37.1328 20.0065L37.3197 21.237C37.5396 22.5978 37.4968 24.1638 37.3197 25.4297L37.1328 26.6602L41.043 30.2467L38.2493 35.0866L33.1908 33.4961L32.2155 34.2708C31.1168 35.1485 29.8928 35.8544 28.5833 36.3672L27.4258 36.8229L26.2728 42H20.6855L19.5326 36.8229L18.375 36.3672C17.0656 35.8544 15.8416 35.1485 14.7428 34.2708L13.7676 33.4961L8.70898 35.0866L5.91536 30.2467L9.82552 26.6602L9.63867 25.4297C9.41076 24.0415 9.44576 22.4526 9.63867 21.237L9.82552 20.0065L5.91536 16.4199L8.70898 11.5801L13.7676 13.1706L14.7428 12.3958C15.8416 11.5181 17.0656 10.8123 18.375 10.2995L19.5326 9.84375L20.6855 4.66667ZM23.4792 14C18.3521 14 14.1458 18.2063 14.1458 23.3333C14.1458 28.4604 18.3521 32.6667 23.4792 32.6667C28.6062 32.6667 32.8125 28.4604 32.8125 23.3333C32.8125 18.2063 28.6062 14 23.4792 14ZM23.4792 18.6667C26.0841 18.6667 28.1458 20.7284 28.1458 23.3333C28.1458 25.9383 26.0841 28 23.4792 28C20.8742 28 18.8125 25.9383 18.8125 23.3333C18.8125 20.7284 20.8742 18.6667 23.4792 18.6667Z" fill="#4D44B5"/>
</svg>
