<svg width="52" height="13" viewBox="0 0 52 13" fill="none" xmlns="http://www.w3.org/2000/svg">
<path d="M25.7628 1.59207e-07C24.9535 1.42152e-07 24.1521 0.159405 23.4044 0.469115C22.6567 0.778825 21.9773 1.23277 21.405 1.80504C20.8328 2.37731 20.3788 3.05669 20.0691 3.8044C19.7594 4.5521 19.6 5.35349 19.6 6.1628C19.6 6.97211 19.7594 7.7735 20.0691 8.5212C20.3788 9.26891 20.8328 9.94829 21.405 10.5206C21.9773 11.0928 22.6567 11.5468 23.4044 11.8565C24.1521 12.1662 24.9535 12.3256 25.7628 12.3256C27.3973 12.3252 28.9647 11.6756 30.1201 10.5196C31.2756 9.36356 31.9246 7.79588 31.9242 6.1614C31.9238 4.52692 31.2742 2.95954 30.1182 1.80405C28.9621 0.648566 27.3945 -0.000371095 25.76 1.59207e-07H25.7628ZM6.1628 1.59207e-07C5.35349 1.42152e-07 4.5521 0.159405 3.8044 0.469115C3.05669 0.778825 2.37731 1.23277 1.80504 1.80504C1.23277 2.37731 0.778825 3.05669 0.469115 3.8044C0.159405 4.5521 0 5.35349 0 6.1628C0 6.97211 0.159405 7.7735 0.469115 8.5212C0.778825 9.26891 1.23277 9.94829 1.80504 10.5206C2.37731 11.0928 3.05669 11.5468 3.8044 11.8565C4.5521 12.1662 5.35349 12.3256 6.1628 12.3256C7.79727 12.3252 9.36466 11.6756 10.5201 10.5196C11.6756 9.36356 12.3246 7.79588 12.3242 6.1614C12.3238 4.52692 11.6742 2.95954 10.5182 1.80405C9.36215 0.648566 7.79447 -0.000371095 6.16 1.59207e-07H6.1628ZM45.3628 1.59207e-07C44.5535 1.42152e-07 43.7521 0.159405 43.0044 0.469115C42.2567 0.778825 41.5773 1.23277 41.005 1.80504C40.4328 2.37731 39.9788 3.05669 39.6691 3.8044C39.3594 4.5521 39.2 5.35349 39.2 6.1628C39.2 6.97211 39.3594 7.7735 39.6691 8.5212C39.9788 9.26891 40.4328 9.94829 41.005 10.5206C41.5773 11.0928 42.2567 11.5468 43.0044 11.8565C43.7521 12.1662 44.5535 12.3256 45.3628 12.3256C46.9973 12.3252 48.5647 11.6756 49.7201 10.5196C50.8756 9.36356 51.5246 7.79588 51.5242 6.1614C51.5238 4.52692 50.8742 2.95954 49.7182 1.80405C48.5621 0.648566 46.9945 -0.000371095 45.36 1.59207e-07H45.3628Z" fill="#4D44B5"/>
</svg>
