<svg width="49" height="50" viewBox="0 0 49 50" fill="none" xmlns="http://www.w3.org/2000/svg">
<path d="M40.432 29.8585C41.72 28.7385 42.56 27.0585 42.56 25.2105C42.56 21.7945 39.816 19.0505 36.4 19.0505C32.984 19.0505 30.24 21.7945 30.24 25.2105C30.24 27.0585 31.08 28.7385 32.368 29.8585C31.192 30.3065 30.072 30.9225 29.064 31.7065C27.944 30.1385 26.152 29.1305 24.08 29.1305C22.008 29.1305 20.216 30.1385 19.096 31.7065C18.088 30.9225 17.024 30.3065 15.792 29.8585C17.08 28.7385 17.92 27.0585 17.92 25.2105C17.92 21.7945 15.176 19.0505 11.76 19.0505C8.344 19.0505 5.6 21.7945 5.6 25.2105C5.6 27.0585 6.44 28.7385 7.728 29.8585C3.248 31.4825 0 35.8505 0 40.8905V48.1705C0 48.7865 0.504 49.2905 1.12 49.2905H47.04C47.656 49.2905 48.16 48.7865 48.16 48.1705V40.8905C48.16 35.8505 44.912 31.4825 40.432 29.8585ZM36.4 21.2905C38.584 21.2905 40.32 23.0265 40.32 25.2105C40.32 27.3945 38.584 29.1305 36.4 29.1305C34.216 29.1305 32.48 27.3945 32.48 25.2105C32.48 23.0265 34.216 21.2905 36.4 21.2905ZM24.08 31.3705C26.264 31.3705 28 33.1065 28 35.2905C28 37.4745 26.264 39.2105 24.08 39.2105C21.896 39.2105 20.16 37.4745 20.16 35.2905C20.16 33.1065 21.896 31.3705 24.08 31.3705ZM11.76 21.2905C13.944 21.2905 15.68 23.0265 15.68 25.2105C15.68 27.3945 13.944 29.1305 11.76 29.1305C9.576 29.1305 7.84 27.3945 7.84 25.2105C7.84 23.0265 9.576 21.2905 11.76 21.2905ZM2.24 47.0505V40.8905C2.24 35.6265 6.496 31.3705 11.76 31.3705C14.224 31.3705 16.408 32.3225 18.088 33.8345C17.976 34.2825 17.92 34.7865 17.92 35.2905C17.92 37.2505 18.872 38.9865 20.272 40.1065C17.696 41.3945 15.904 44.0265 15.68 47.0505H2.24ZM17.92 47.0505C18.2 43.9145 20.832 41.4505 24.08 41.4505C27.328 41.4505 29.96 43.9145 30.24 47.0505H17.92ZM45.92 47.0505H32.48C32.256 44.0265 30.464 41.4505 27.888 40.1065C29.344 38.9865 30.24 37.2505 30.24 35.2905C30.24 34.7865 30.184 34.2825 30.072 33.8345C31.752 32.3225 33.992 31.3705 36.4 31.3705C41.664 31.3705 45.92 35.6265 45.92 40.8905V47.0505ZM15.904 15.1305L23.408 21.0665C23.632 21.2345 23.856 21.2905 24.08 21.2905C24.304 21.2905 24.584 21.2345 24.752 21.0665L32.256 15.1305C35.672 12.3305 37.072 8.57854 35.952 5.10654C35 2.19454 32.592 0.178541 29.848 0.0105414C29.68 0.0105414 29.568 0.0105414 29.4 0.0105414C27.384 0.0105414 25.48 0.794541 24.08 2.19454C22.568 0.682541 20.44 -0.101459 18.312 0.0105414C15.568 0.178541 13.16 2.19454 12.208 5.10654C11.088 8.57854 12.432 12.3305 15.904 15.1305ZM14.336 5.77854C14.952 3.81854 16.688 2.36254 18.424 2.25054C18.536 2.25054 18.648 2.25054 18.76 2.25054C20.496 2.25054 22.176 3.09054 23.184 4.54654C23.408 4.82654 23.744 4.99454 24.08 4.99454C24.416 4.99454 24.752 4.82654 24.976 4.54654C25.984 3.09054 27.664 2.25054 29.4 2.25054C29.512 2.25054 29.624 2.25054 29.736 2.25054C31.528 2.36254 33.208 3.81854 33.824 5.77854C34.664 8.35454 33.6 11.1545 30.856 13.3385L24.08 18.7705L17.304 13.3945C14.56 11.1545 13.496 8.41054 14.336 5.77854Z" fill="#4D44B5"/>
</svg>
