<svg width="9" height="16" viewBox="0 0 9 16" fill="none" xmlns="http://www.w3.org/2000/svg">
<path d="M5.10988 6.33949C3.58484 5.7132 3.46685 5.44409 3.46685 5.13214C3.46685 4.93291 3.56581 4.46971 4.48179 4.46971C5.31976 4.46971 6.3639 4.94009 7.10027 5.42482L8.12467 2.73969C7.39331 2.2741 6.5045 1.87409 5.67347 1.74617V0H2.94215V1.91609C1.31959 2.4275 0.319726 3.7246 0.319726 5.33927C0.319726 7.4778 2.0306 8.43255 3.70174 9.08337C5.03689 9.62051 5.14877 10.0317 5.14877 10.375C5.14877 10.903 4.66212 11.2442 3.90899 11.2442C2.92696 11.2442 1.78506 10.6777 0.985624 10.0579L0 12.7861C0.815111 13.4181 1.75873 13.8352 2.82046 13.9909V15.8003H5.56877V13.8307C7.24207 13.2978 8.31301 11.9116 8.31301 10.2541C8.31301 7.93393 6.6013 6.9434 5.10988 6.33949Z" fill="#4D44B5"/>
</svg>
